<svg xmlns="http://www.w3.org/2000/svg" viewBox="1980 3370 4360 4360">
  <g fill="#2A3141">
    <polygon points="3366.78,3693.74 2716.8,4731.92 2728.63,7215 4943.28,3693.74" />
    <path d="M3948.27 3687.82l1007.08 0c492.83,199.27 840.54,682.31 840.54,1246.57 0,742.31 -601.76,1344.07 -1344.07,1344.07 -742.31,0 -1344.07,-601.76 -1344.07,-1344.07 0,-564.26 347.7,-1047.3 840.53,-1246.57z" />
  </g>
  <line x1="2616.88" y1="6048.5" x2="4182.68" y2="3531.93" stroke="#FEFEFE" stroke-width="242.53" />
  <line x1="2524.35" y1="7569.4" x2="5004.81" y2="3582.78" stroke="#FEFEFE" stroke-width="242.52" />
  <path fill="#FEFEFE" d="M4620.15 4406.82l-578.38 928.87c103.55,111.62 251.5,181.47 415.76,181.47 313.15,0 567,-253.85 567,-567 0,-256.63 -170.48,-473.43 -404.38,-543.33z" />
</svg>
