<svg xmlns="http://www.w3.org/2000/svg" xml:space="preserve" version="1.1" style="shape-rendering:geometricPrecision; text-rendering:geometricPrecision; image-rendering:optimizeQuality; fill-rule:evenodd; clip-rule:evenodd"
viewBox="2710 3110 3075 3045"
 xmlns:xlink="http://www.w3.org/1999/xlink"
 xmlns:xodm="http://www.corel.com/coreldraw/odm/2003">
 <defs>
  <style type="text/css">
   <![CDATA[
    .str2 {stroke:#FEFEFE;stroke-width:72.59;stroke-miterlimit:2.61313}
    .str0 {stroke:#2A3141;stroke-width:72.59;stroke-miterlimit:2.61313}
    .str1 {stroke:#2A3141;stroke-width:72.59;stroke-miterlimit:2.61313}
    .str3 {stroke:#FEFEFE;stroke-width:90.74;stroke-miterlimit:2.61313}
    .fil1 {fill:none}
    .fil0 {fill:#2A3141}
    .fil2 {fill:#2A3141;fill-rule:nonzero}
   ]]>
  </style>
 </defs>
 <g id="Layer_x0020_1">
  <metadata id="CorelCorpID_0Corel-Layer"/>
  <path class="fil0" d="M4577.34 5570.55l-40.12 -78.85c-61.91,21.02 -112.28,29.44 -148.62,41.14 -83.82,39.66 -145.81,144.61 -123.74,247.6 7.17,33.46 19.99,66.28 37.86,88.72 70.93,89.02 154.61,112.92 271.24,80.46 136.31,-37.94 279.33,-90.7 393.99,-167.85 190.49,-128.15 310.09,-254.24 430.99,-445.13 41.4,-65.35 70.42,-138.06 100.42,-208.52 109.05,-256.13 112.4,-595.02 34.74,-860.28 -10.7,-36.56 -29.44,-88.61 -50.26,-139.24 -0.1,-0.26 -0.2,-0.51 -0.31,-0.77 -46.2,-112.25 -157.79,-297.16 -247,-381.36 -11.39,-10.74 -18.11,-19.5 -30.04,-31.02 -83.36,-80.44 -104.1,-101.06 -202.85,-171.87l-157.67 -90.73c-459.53,-217.29 -970.6,-179.47 -1367.03,107.87 -117.97,85.48 -286.46,260.21 -359.42,389.94 -36.83,65.51 -54.24,94.15 -85.73,167.08 -3.73,8.64 -7.36,17.3 -10.92,26.07 -188.31,463.26 -103.31,930.28 204.45,1313l4.17 3.29c23.12,43.27 174.93,179.01 216.46,209.92 6.24,4.65 12.09,8.39 17.94,12.43 38.44,26.61 170.18,117.14 204.89,114.51 39.93,-3.02 54.28,-50.85 23.93,-77.85 -19.07,-16.97 -149.2,-84.21 -195.97,-126.26 -12.91,-11.61 -22.74,-17.36 -34.16,-26.7 -95.42,-78 -209.36,-200.3 -273.26,-305.8 -8.02,-13.25 -14.02,-25.78 -22.05,-39.08 -160.54,-266.19 -195.18,-641.07 -96.85,-947.85 14.93,-46.57 31.36,-89.71 49.23,-130.24 35.22,-79.91 75.81,-149.23 120.81,-213.61 201.68,-259.38 439.85,-442.23 768.78,-502.8 204.87,-37.73 436.6,-28.55 624.2,36.84 328.88,114.63 603.36,347.31 750.93,664.85 0.12,0.25 0.23,0.5 0.35,0.74 166.86,359.74 138.33,805.3 -51.42,1135.48 -34.57,60.16 -64.4,106.01 -106.6,159.2 -193.3,221.63 -409.55,377.24 -701.02,444.27 -157.07,36.11 -223.63,-142.37 -141.66,-220.26 51.39,-48.83 54.32,-37.31 118.86,-54.7 24.73,-6.66 48.88,-14.21 72.46,-22.62zm-2123.6 -1423.15l2.42 -0.02 -2.42 0.02z"/>
  <g id="_1792355991984">
   <path class="fil0" d="M3632.83 3943.45l100.06 33.91c-58.17,47.34 -109.48,102.01 -152.91,162.91 -38.42,53.9 -70.52,112.44 -95.66,174.92 -152.56,379.14 5.78,869.24 411.67,984.84 45.4,12.93 129.28,-57.97 116.9,34.83 -1.23,9.26 -1.52,18.73 -5.94,27.63 -22.11,44.52 -87.58,48.44 -200.56,-6.41 -460.7,-224.2 -592.06,-730.97 -361.13,-1171.08 7.12,-13.57 15.78,-28.4 25.65,-44.04 43.85,-69.42 110.08,-152.34 161.91,-197.51z"/>
   <path class="fil1" d="M4054.68 5361.76c9.6,2.5 19.36,4.93 29.28,7.3l-0.76 155.34c-4.89,-20.08 -12.91,-38.54 -25.58,-54.98 -49.2,-63.84 -50.2,4.98 -44.41,-119.11"/>
   <path class="fil0" d="M4095.31 5369.73c-0.74,152.01 -27.98,476.39 41.52,577.99 23.37,41.09 75.43,95.84 112.93,122.57 169.86,121.06 375.71,71.56 557.82,-4.57 348.71,-145.76 626.72,-380.31 797.59,-718.89 343.68,-680.9 153.3,-1493.56 -464.64,-1940.54 -817.89,-591.95 -2003.62,-221.07 -2333.69,738.87 -37.42,108.83 -60.59,222.34 -75.04,354.04 -29.8,271.47 26.05,562.13 139.03,798.12 117,244.41 601.85,868.75 921.67,698.22 60.97,-32.5 112.2,-84.23 135.15,-157.45 16.09,-51.34 17.53,-113.65 1.34,-165.16 -14.19,-45.15 -50.54,-101.94 -74.74,-121.83 -32.15,-26.44 -123.51,-77.71 -176.33,-111.27 -0.79,-0.5 -1.91,-1.13 -2.71,-1.63l-59.12 -41.31c-190.23,-137.79 -339.93,-355.95 -383.15,-587.54 -120.52,-645.82 429.13,-1258.55 1091.2,-1209.42 681.67,50.58 1104.27,663.52 951.33,1318.09 -22.04,94.35 -68.92,200.53 -114,277.44 -148.13,252.76 -387.83,426.23 -671.94,494.94 -78.33,18.95 -53.19,96.94 7.35,90.81 108.96,-11.03 325.44,-114.85 406.67,-177.05 21.11,-16.17 37.85,-23.85 58.34,-42.09 60.79,-54.13 91.42,-71.79 147.93,-144.11 14.35,-18.37 31.05,-32.34 47.07,-53.18 51.99,-67.64 71.67,-103.6 111,-176.37 96.42,-178.38 149.5,-417.45 128.28,-643.03 -49.85,-529.96 -457.88,-950.14 -985.7,-1027.64 -189.48,-27.81 -410.48,-1.35 -584.21,71.91 -245.46,103.52 -469.29,312.49 -584.43,552.74 -107.22,223.8 -146.3,503.45 -86.5,735.39 41.56,161.2 122.81,308.76 234.64,431.81 29.81,32.81 70.18,79.95 106.12,107.2 10.06,7.63 13.54,11.49 23.7,20.31l120.2 88.4c28.04,19.7 110.35,60.8 132.24,77.26 115.63,86.94 99.91,255.8 -32.26,318.12 -206.58,97.42 -616.52,-355.85 -712.29,-522.97 -52.85,-92.22 -100.43,-181.06 -135.32,-286.97 -96.03,-291.49 -103.48,-570.85 -20.68,-868.43 106.01,-380.89 300.72,-568.64 591.84,-797.23 311.89,-198.73 671.76,-281.8 1045.07,-212.16 1152.9,180.18 1617.5,1758.91 639.93,2536.33 -224.97,178.91 -520.07,326.13 -739.23,275.66 -103.43,-23.81 -176.35,-84.54 -212.41,-179.68 -23.32,-61.52 -12.61,-137.04 -12.56,-205.08 5.07,-138.03 4.17,-462.25 1.76,-499.22 -1.96,-30.09 -5.63,228.74 -56.13,218.19 -15.69,-3.28 -19.67,-6.04 -34.63,-9.61z"/>
   <line class="fil1" x1="4451.41" y1="6345.35" x2="4450.06" y2= "6347.31" />
   <line class="fil1" x1="3555.21" y1="6367.74" x2="3553.87" y2= "6369.7" />
   <path class="fil1" d="M3729.23 3975.47c-0.39,0.06 -0.82,0.13 -1.26,0.23l0.91 0.31"/>
   <path class="fil0" d="M3729.99 3974.36l-7.72 -2.67c-17.78,5.3 -56.39,32.41 -85.63,62.14 -43.5,44.24 -63.46,103.52 -44.65,90.02 75.96,-54.51 272.98,-41.66 295.8,0.97 22.91,42.79 34.4,115.7 34.4,218.15l0 539.9c0,511.22 34.13,449.3 -141.57,376.33 -22.64,-9.41 -46.88,-34.81 -75.55,-46.26 32.18,36.68 180.79,136.22 285.66,167.61l25.04 -85.37c-0.19,-1.17 -0.35,-2.32 -0.47,-3.46 -5.93,-53.79 1.48,-1095.35 -0.86,-1257.65 -119.17,-14.13 -327.44,1.22 -284.46,-59.72 0,0 0,-0 0,-0.01z"/>
   <path class="fil1" d="M4034.41 5401.43l4.69 -100.64m15.58 60.98c6.48,2.83 18.07,6.41 29.35,-7.02m-0.07 14.31l-0.13 27.35"/>
   <g>
    <path class="fil0" d="M4095.52 5371.81c-0.04,6.74 -0.16,10 -0.16,18.39 47.4,43.37 41.13,198.5 60.28,179.4 26.43,-26.36 32.07,-112.67 32.37,-228.86 0.43,-167.93 -2.66,-375.26 -2.66,-444.26l0 -196.98c59.73,20.79 119.85,31 179.59,31 107.75,0 195.47,-32.14 262.77,-96.03 67.3,-62.76 100.95,-147.08 100.95,-252.94 0,-103.59 -30.63,-190.18 -91.88,-259.74 -62.38,-69.19 -159.17,-103.59 -290.74,-103.59 -31,0 -59.36,1.51 -85.44,4.54 -38.94,4.16 -79.78,7.18 -121.75,9.07 -10.59,1.51 -24.95,2.27 -43.48,2.27 0,405.05 0,938.61 0,1300 0,3.65 0,7.29 0,10.91 0,2.53 0.05,7.35 0.09,11.98l0.07 14.84zm89.82 -997.07l0 241.97c51.04,21.55 105.86,32.14 164.09,32.14 93.76,0 164.09,-25.71 210.59,-77.51 46.5,-52.56 69.95,-117.58 69.95,-195.47 0,-80.53 -23.44,-147.45 -69.95,-200.76 -46.5,-53.31 -119.48,-79.78 -218.15,-79.78 -54.82,0 -94.9,8.32 -119.85,25.33 -24.57,17.77 -36.67,102.46 -36.67,254.07z"/>
   </g>
   <path class="fil1" d="M4115.19 5370c1.95,-7.57 1.31,-14.5 0.08,-20.12 -1.24,-5.62 -3.07,-9.92 -5.73,-22.24 -2.66,-12.33 -6.15,-32.68 -8.65,-36.19 -2.5,-3.51 -4.02,9.81 -5.39,21.13 -0.05,0.43 -0.11,0.85 -0.15,1.27"/>
   <line class="fil1 str0" x1="3036.63" y1="5534.91" x2="3228.26" y2= "5395.03" />
   <g>
    <polygon class="fil2" points="5154.82,5856.19 5001.91,5666.41 5058.44,5620.87 5211.35,5810.65 "/>
   </g>
   <line class="fil1 str0" x1="2769.09" y1="4388.04" x2="2974.82" y2= "4424.02" />
   <g>
    <polygon class="fil2" points="4376.2,3369.33 4405.96,3132.19 4477.98,3141.22 4448.22,3378.37 "/>
   </g>
   <g>
    <polygon class="fil2" points="3477.21,3620.02 3359.15,3453.98 3418.31,3411.92 3536.37,3577.95 "/>
   </g>
   <g>
    <path class="fil2" d="M5223.6 3672.88l82.87 -74 48.35 54.15 -82.87 74 0 0 -48.35 -54.15zm-84.58 75.52l84.58 -75.52 48.35 54.15 -84.58 75.52 -48.35 -54.15z"/>
   </g>
   <line class="fil1 str1" x1="5751.83" y1="4827.74" x2="5518.35" y2= "4799.67" />
   <line class="fil1 str2" x1="2903.87" y1="4953.65" x2="3086.18" y2= "4912.25" />
   <line class="fil1 str2" x1="3099.43" y1="3889.77" x2="3265.7" y2= "3999.04" />
   <line class="fil1 str2" x1="3882.14" y1="3319.35" x2="3935.02" y2= "3509.05" />
   <line class="fil1 str2" x1="4902.91" y1="3435.36" x2="4816.5" y2= "3596.35" />
   <line class="fil1 str2" x1="5562.23" y1="4237.77" x2="5419.7" y2= "4282.34" />
   <line class="fil1 str2" x1="5428.78" y1="5331.87" x2="5306.06" y2= "5260.47" />
   <polyline class="fil1 str0" points="5312.27,4985.44 5438.12,5025.57 5481.43,5037.43 "/>
   <line class="fil1 str3" x1="3424.35" y1="4133.31" x2="3735.67" y2= "4133.31" />
   <g>
    <path class="fil2" d="M4285.68 3667.6l0 90.69 0 0 -22.56 0.31 -22.48 0.93 -22.4 1.55 -22.3 2.16 -22.19 2.77 -22.07 3.37 -21.94 3.96 -21.8 4.56 -21.65 5.15 -21.5 5.73 -21.33 6.31 -21.14 6.88 -20.95 7.45 -20.75 8.02 -20.54 8.57 -20.32 9.13 -20.08 9.68 -19.84 10.22 -19.59 10.76 -19.32 11.3 -19.05 11.83 -18.76 12.35 -18.46 12.88 -18.16 13.39 -17.84 13.91 -17.51 14.41 -17.17 14.92 -16.83 15.42 -16.46 15.9 -16.09 16.4 -15.72 16.88 -15.32 17.36 -68.83 -59.09 16.91 -19.16 17.35 -18.64 17.78 -18.11 18.2 -17.58 18.6 -17.04 18.99 -16.49 19.37 -15.94 19.74 -15.38 20.09 -14.83 20.45 -14.26 20.78 -13.69 21.1 -13.1 21.41 -12.52 21.71 -11.93 21.99 -11.33 22.28 -10.73 22.53 -10.13 22.79 -9.51 23.03 -8.89 23.26 -8.27 23.47 -7.64 23.68 -7 23.87 -6.37 24.06 -5.72 24.22 -5.07 24.38 -4.41 24.52 -3.74 24.67 -3.08 24.79 -2.4 24.89 -1.72 24.99 -1.04 25.07 -0.35 0 0zm939.81 976.54l-90.74 0 0 0 -1.11 -45.72 -3.29 -45.09 -5.42 -44.42 -7.5 -43.7 -9.51 -42.92 -11.48 -42.09 -13.39 -41.2 -15.24 -40.26 -17.06 -39.27 -18.8 -38.22 -20.5 -37.11 -22.14 -35.96 -23.73 -34.74 -25.26 -33.46 -26.74 -32.13 -28.16 -30.75 -29.53 -29.31 -30.83 -27.81 -32.09 -26.26 -33.3 -24.65 -34.44 -22.98 -35.53 -21.27 -36.57 -19.5 -37.56 -17.68 -38.49 -15.8 -39.38 -13.87 -40.2 -11.89 -40.98 -9.85 -41.72 -7.76 -42.4 -5.61 -43.04 -3.41 -43.65 -1.15 0 -90.69 48.41 1.28 47.81 3.78 47.12 6.23 46.37 8.62 45.57 10.95 44.68 13.21 43.75 15.41 42.74 17.54 41.68 19.62 40.56 21.62 39.38 23.57 38.13 25.46 36.84 27.28 35.48 29.03 34.07 30.72 32.6 32.36 31.07 33.93 29.49 35.44 27.85 36.89 26.15 38.28 24.39 39.6 22.57 40.88 20.7 42.08 18.77 43.23 16.78 44.31 14.73 45.33 12.63 46.29 10.46 47.19 8.24 48.01 5.96 48.78 3.61 49.49 1.22 50.11 0 0zm-715.26 948.26l-22.49 -87.87 35.22 -9.83 34.52 -11.3 33.8 -12.73 33.06 -14.13 32.3 -15.48 31.5 -16.81 30.67 -18.09 29.83 -19.35 28.95 -20.56 28.04 -21.73 27.11 -22.87 26.15 -23.97 25.15 -25.05 24.13 -26.07 23.08 -27.07 22.01 -28.02 20.9 -28.94 19.75 -29.81 18.59 -30.66 17.39 -31.46 16.17 -32.22 14.91 -32.95 13.63 -33.64 12.31 -34.29 10.97 -34.91 9.6 -35.48 8.2 -36.03 6.78 -36.52 5.32 -36.99 3.83 -37.42 2.32 -37.81 0.78 -38.18 90.74 0 -0.85 41.88 -2.55 41.51 -4.21 41.1 -5.85 40.64 -7.45 40.14 -9.02 39.59 -10.56 39.02 -12.07 38.39 -13.54 37.72 -15 37.01 -16.41 36.26 -17.8 35.47 -19.15 34.64 -20.47 33.76 -21.77 32.85 -23.03 31.9 -24.27 30.9 -25.47 29.86 -26.65 28.79 -27.79 27.66 -28.9 26.5 -29.99 25.3 -31.04 24.05 -32.06 22.76 -33.05 21.43 -34 20.05 -34.93 18.64 -35.83 17.18 -36.69 15.68 -37.52 14.13 -38.31 12.54 -39.06 10.91z"/>
   </g>
  </g>
 </g>
</svg>
